<svg width="22" height="21" viewBox="0 0 22 21" fill="none" xmlns="http://www.w3.org/2000/svg">
<path d="M10.2827 2.45356C10.5131 1.98662 10.6284 1.75315 10.7848 1.67856C10.9209 1.61366 11.0791 1.61366 11.2152 1.67856C11.3717 1.75315 11.4869 1.98662 11.7174 2.45356L13.9041 6.88353C13.9721 7.02138 14.0061 7.0903 14.0558 7.14382C14.0999 7.1912 14.1527 7.22959 14.2113 7.25687C14.2776 7.28767 14.3536 7.29878 14.5057 7.32102L19.397 8.03595C19.9121 8.11124 20.1696 8.14888 20.2888 8.27468C20.3925 8.38414 20.4412 8.53454 20.4215 8.68402C20.3988 8.85582 20.2124 9.03742 19.8395 9.40063L16.3014 12.8467C16.1912 12.9541 16.136 13.0078 16.1004 13.0717C16.0689 13.1283 16.0487 13.1905 16.0409 13.2548C16.0321 13.3274 16.0451 13.4032 16.0711 13.555L16.906 18.4224C16.994 18.9357 17.038 19.1924 16.9553 19.3447C16.8833 19.4773 16.7554 19.5702 16.6071 19.5977C16.4366 19.6293 16.2061 19.5081 15.7451 19.2657L11.3724 16.9661C11.2361 16.8944 11.168 16.8586 11.0962 16.8445C11.0327 16.8321 10.9673 16.8321 10.9038 16.8445C10.832 16.8586 10.7639 16.8944 10.6277 16.9661L6.25492 19.2657C5.79392 19.5081 5.56341 19.6293 5.39297 19.5977C5.24468 19.5702 5.11672 19.4773 5.04474 19.3447C4.962 19.1924 5.00603 18.9357 5.09407 18.4224L5.92889 13.555C5.95491 13.4032 5.96793 13.3274 5.95912 13.2548C5.95132 13.1905 5.93111 13.1283 5.89961 13.0717C5.86402 13.0078 5.80888 12.9541 5.69859 12.8467L2.16056 9.40062C1.78766 9.03742 1.60121 8.85582 1.57853 8.68402C1.55879 8.53454 1.60755 8.38414 1.71125 8.27468C1.83044 8.14888 2.08797 8.11124 2.60304 8.03595L7.49431 7.32102C7.64642 7.29878 7.72248 7.28767 7.78872 7.25687C7.84736 7.22959 7.90016 7.1912 7.94419 7.14382C7.99391 7.0903 8.02793 7.02138 8.09597 6.88353L10.2827 2.45356Z" stroke="#6C7275" stroke-width="2" stroke-linecap="round" stroke-linejoin="round"/>
</svg>
